	<svg class="mp_icon" viewBox="0 0 1366 494" fill="none" xmlns="http://www.w3.org/2000/svg">
	<rect width="1366" height="494" fill="none"/>
	<path d="M724.873 244.726L741.989 265.95L759.333 244.726H760.075V283.522H772.513V227.61H758.877L742.103 248.434L725.273 227.61H711.637V283.636H724.075V244.726H724.873Z" fill="#fff"/>
	<path d="M800.929 285.284C803.775 285.295 806.593 284.712 809.201 283.573C811.715 282.467 813.998 280.899 815.934 278.951C817.858 277.074 819.407 274.847 820.498 272.39C821.618 269.878 822.182 267.153 822.152 264.403C822.178 261.634 821.614 258.892 820.498 256.358C819.393 253.892 817.846 251.649 815.934 249.74C813.976 247.848 811.696 246.322 809.201 245.233C806.581 244.138 803.769 243.575 800.929 243.579C798.126 243.575 795.351 244.138 792.77 245.233C790.243 246.294 787.94 247.823 785.981 249.74C784.068 251.649 782.521 253.892 781.417 256.358C780.283 258.888 779.699 261.63 779.705 264.403C779.695 267.157 780.279 269.882 781.417 272.39C782.508 274.847 784.057 277.074 785.981 278.951C787.922 280.904 790.229 282.455 792.77 283.516C795.334 284.675 798.115 285.278 800.929 285.284ZM800.929 275.243C799.629 275.211 798.349 274.92 797.163 274.387C795.939 273.852 794.848 273.053 793.968 272.048C793.07 271.028 792.339 269.873 791.8 268.625C791.149 267.329 790.779 265.909 790.716 264.46C790.708 262.99 791 261.535 791.572 260.181C792.138 258.948 792.867 257.796 793.74 256.758C794.651 255.787 795.734 254.993 796.935 254.419C798.116 253.877 799.402 253.604 800.7 253.62C802 253.599 803.287 253.872 804.466 254.419C805.676 254.979 806.762 255.774 807.661 256.758C808.588 257.778 809.358 258.932 809.943 260.181C810.497 261.538 810.769 262.994 810.742 264.46C810.77 265.889 810.498 267.308 809.943 268.625C809.385 269.889 808.613 271.047 807.661 272.048C806.777 273.049 805.687 273.847 804.466 274.387C803.353 274.897 802.152 275.188 800.929 275.243V275.243Z" fill="#fff"/>
	<path d="M847.428 285.304C850.011 285.337 852.58 284.912 855.016 284.048C857.087 283.319 859.017 282.238 860.721 280.853C862.346 279.6 863.721 278.052 864.772 276.289C865.785 274.613 866.517 272.782 866.94 270.869L855.529 269.272C854.916 270.893 853.894 272.327 852.562 273.436C851.043 274.693 849.113 275.343 847.142 275.262C845.933 275.295 844.736 275.02 843.662 274.463C842.536 273.926 841.527 273.169 840.695 272.238C839.79 271.277 839.108 270.128 838.699 268.872C838.146 267.475 837.874 265.982 837.9 264.479C837.867 262.957 838.138 261.444 838.699 260.029C839.134 258.768 839.813 257.606 840.695 256.606C841.561 255.728 842.563 254.995 843.662 254.438C844.736 253.881 845.933 253.606 847.142 253.639C848.872 253.569 850.576 254.07 851.992 255.065C853.112 256.002 854.041 257.145 854.73 258.432L866.141 256.834C865.734 255.112 864.997 253.485 863.973 252.042C862.914 250.436 861.604 249.01 860.093 247.82C858.353 246.519 856.43 245.481 854.388 244.739C852.102 244.008 849.714 243.642 847.314 243.655C844.622 243.658 841.96 244.221 839.497 245.309C837.089 246.403 834.904 247.931 833.05 249.816C831.17 251.74 829.644 253.98 828.543 256.435C827.427 258.968 826.863 261.711 826.889 264.479C826.859 267.23 827.423 269.954 828.543 272.467C829.675 274.898 831.241 277.102 833.164 278.971C835.001 280.892 837.189 282.441 839.611 283.535C842.057 284.687 844.724 285.291 847.428 285.304V285.304Z" fill="#fff"/>
	<path d="M900.65 264.471V263.673C901.364 263.487 902.039 263.178 902.647 262.76C903.201 262.343 903.667 261.819 904.016 261.219C904.542 260.532 904.823 259.689 904.815 258.823V257.226C904.807 256.856 904.874 256.489 905.012 256.147C905.149 255.804 905.355 255.493 905.616 255.232C905.877 254.97 906.189 254.765 906.531 254.627C906.874 254.489 907.241 254.422 907.61 254.43H909.208V244.731H906.812C903.34 244.43 899.868 245.293 896.941 247.184C895.975 248.01 895.21 249.046 894.706 250.213C894.201 251.38 893.971 252.647 894.032 253.917V256.142C894.09 256.58 894.045 257.026 893.901 257.444C893.757 257.862 893.518 258.241 893.203 258.551C892.887 258.86 892.504 259.093 892.084 259.229C891.663 259.365 891.217 259.402 890.78 259.337H883.819V245.244H872.409V283.641H883.819V269.264H891.464C891.895 269.206 892.334 269.249 892.745 269.389C893.156 269.53 893.529 269.765 893.834 270.075C894.138 270.385 894.366 270.762 894.5 271.176C894.633 271.59 894.668 272.029 894.602 272.459V275.254C894.546 276.535 894.791 277.81 895.316 278.979C895.841 280.148 896.632 281.178 897.626 281.987C900.519 283.91 903.978 284.795 907.439 284.497H909.835V274.456H908.238C907.869 274.463 907.502 274.396 907.159 274.259C906.816 274.121 906.505 273.915 906.244 273.654C905.983 273.393 905.777 273.082 905.639 272.739C905.502 272.396 905.435 272.029 905.442 271.66V269.663C905.493 268.782 905.275 267.906 904.815 267.153C904.303 266.561 903.729 266.025 903.103 265.555C902.344 265.074 901.517 264.709 900.65 264.471V264.471Z" fill="#fff"/>
	<path d="M934.313 285.284C937.159 285.29 939.976 284.707 942.586 283.573C945.099 282.467 947.383 280.899 949.318 278.951C951.224 277.059 952.77 274.836 953.882 272.39C954.976 269.87 955.539 267.151 955.537 264.403C955.534 261.637 954.971 258.901 953.882 256.358C952.757 253.904 951.213 251.664 949.318 249.74C947.361 247.848 945.081 246.322 942.586 245.233C939.964 244.144 937.153 243.582 934.313 243.579C931.509 243.571 928.734 244.134 926.155 245.233C923.628 246.294 921.324 247.823 919.365 249.74C917.435 251.635 915.886 253.881 914.801 256.358C913.667 258.888 913.084 261.63 913.089 264.403C913.079 267.157 913.663 269.882 914.801 272.39C915.871 274.859 917.423 277.089 919.365 278.951C921.306 280.905 923.613 282.456 926.155 283.516C928.717 284.68 931.499 285.283 934.313 285.284V285.284ZM934.313 275.243C933.013 275.212 931.733 274.921 930.548 274.387C929.418 273.83 928.425 273.031 927.638 272.048C926.74 271.028 926.008 269.873 925.47 268.625C924.897 267.311 924.606 265.893 924.614 264.46C924.606 262.99 924.897 261.535 925.47 260.181C926.036 258.948 926.765 257.796 927.638 256.758C928.537 255.774 929.623 254.979 930.833 254.419C932.014 253.877 933.3 253.605 934.598 253.62C935.898 253.599 937.185 253.872 938.364 254.419C939.574 254.979 940.66 255.774 941.559 256.758C942.486 257.779 943.255 258.932 943.841 260.181C944.369 261.546 944.64 262.997 944.64 264.46C944.636 265.886 944.365 267.299 943.841 268.625C943.283 269.889 942.511 271.047 941.559 272.048C940.675 273.049 939.585 273.847 938.364 274.387C937.093 274.966 935.71 275.258 934.313 275.243V275.243Z" fill="#fff"/>
	<path d="M973.296 254.022H980.485C980.854 254.014 981.221 254.081 981.564 254.219C981.906 254.356 982.218 254.562 982.479 254.823C982.74 255.084 982.946 255.396 983.083 255.738C983.221 256.081 983.288 256.448 983.28 256.817C983.3 257.188 983.238 257.559 983.1 257.903C982.962 258.248 982.751 258.559 982.482 258.814C982.224 259.081 981.913 259.29 981.569 259.427C981.225 259.565 980.855 259.628 980.485 259.613H973.296V254.022ZM983.28 274.846H973.296V267.543H983.28C983.758 267.515 984.235 267.593 984.679 267.77C985.122 267.948 985.522 268.221 985.848 268.57C986.189 268.905 986.461 269.304 986.646 269.745C986.831 270.186 986.927 270.659 986.927 271.138C986.927 271.616 986.831 272.089 986.646 272.53C986.461 272.971 986.189 273.37 985.848 273.705C985.51 274.078 985.095 274.373 984.632 274.57C984.169 274.767 983.669 274.861 983.166 274.846H983.28ZM980.485 245.236H961.885V283.632H982.71C984.987 283.673 987.258 283.365 989.442 282.719C991.197 282.14 992.852 281.293 994.349 280.209C995.563 279.239 996.571 278.036 997.315 276.672C997.973 275.504 998.326 274.189 998.342 272.849C998.409 271.039 997.932 269.251 996.973 267.714C996.129 266.555 995.109 265.535 993.949 264.691C992.604 263.827 991.117 263.209 989.556 262.865V261.838C990.473 261.457 991.336 260.959 992.124 260.355C992.817 259.75 993.43 259.06 993.949 258.301C994.546 257.305 994.825 256.15 994.748 254.992C994.724 253.732 994.391 252.498 993.778 251.397C993.075 250.152 992.123 249.065 990.983 248.202C989.635 247.155 988.108 246.362 986.475 245.863C984.484 245.347 982.426 245.135 980.371 245.236H980.485Z" fill="#fff"/>
	<path d="M1022.86 285.303C1025.41 285.328 1027.94 284.903 1030.34 284.048C1032.41 283.314 1034.34 282.233 1036.04 280.853C1037.65 279.598 1039.01 278.049 1040.04 276.289C1041.07 274.625 1041.81 272.789 1042.2 270.869L1030.79 269.271C1030.18 270.892 1029.16 272.327 1027.83 273.436C1026.23 274.762 1024.19 275.417 1022.12 275.262C1020.93 275.29 1019.75 275.016 1018.7 274.463C1017.56 273.911 1016.54 273.157 1015.68 272.238C1014.79 271.274 1014.12 270.124 1013.74 268.872C1013.16 267.479 1012.87 265.985 1012.88 264.479C1012.86 262.953 1013.16 261.44 1013.74 260.029C1014.15 258.772 1014.81 257.608 1015.68 256.606C1016.57 255.739 1017.59 255.008 1018.7 254.438C1019.75 253.885 1020.93 253.61 1022.12 253.639C1023.87 253.573 1025.59 254.073 1027.03 255.065C1028.38 255.915 1029.51 257.068 1030.34 258.431L1041.75 256.834C1041.29 255.129 1040.56 253.51 1039.58 252.041C1038.5 250.434 1037.17 249.009 1035.64 247.819C1033.91 246.514 1031.98 245.475 1029.94 244.739C1027.63 244.011 1025.23 243.645 1022.81 243.655C1020.13 243.652 1017.49 244.216 1015.05 245.309C1012.61 246.387 1010.41 247.916 1008.54 249.816C1006.68 251.757 1005.16 253.994 1004.04 256.434C1002.95 258.977 1002.38 261.713 1002.38 264.479C1002.38 267.227 1002.94 269.946 1004.04 272.466C1005.17 274.882 1006.72 277.082 1008.6 278.97C1010.45 280.905 1012.66 282.456 1015.1 283.535C1017.53 284.691 1020.18 285.295 1022.86 285.303V285.303Z" fill="#fff"/>
	<path d="M1075.98 264.473V263.674C1076.7 263.511 1077.38 263.2 1077.98 262.761C1078.53 262.345 1079 261.821 1079.35 261.221C1079.83 260.519 1080.07 259.677 1080.03 258.825V257.227C1080.01 256.49 1080.27 255.772 1080.77 255.23C1081.04 254.959 1081.36 254.748 1081.71 254.61C1082.07 254.473 1082.45 254.412 1082.83 254.432H1084.43V244.733H1081.97C1078.52 244.427 1075.06 245.291 1072.16 247.186C1071.19 248.009 1070.41 249.043 1069.9 250.209C1069.38 251.376 1069.14 252.644 1069.19 253.918V256.143C1069.26 256.578 1069.22 257.023 1069.09 257.442C1068.95 257.861 1068.72 258.242 1068.41 258.553C1068.1 258.865 1067.71 259.098 1067.3 259.234C1066.88 259.371 1066.43 259.406 1066 259.338H1059.15V245.246H1047.74V283.643H1059.15V269.265H1066.8C1067.23 269.197 1067.68 269.233 1068.09 269.369C1068.51 269.506 1068.89 269.739 1069.21 270.05C1069.52 270.362 1069.75 270.743 1069.89 271.161C1070.02 271.58 1070.06 272.025 1069.99 272.46V275.256C1069.94 276.53 1070.18 277.8 1070.69 278.967C1071.21 280.135 1071.98 281.168 1072.96 281.988C1075.87 283.912 1079.35 284.796 1082.83 284.499H1085.22V274.457H1083.63C1083.27 274.465 1082.91 274.398 1082.57 274.26C1082.24 274.123 1081.94 273.918 1081.69 273.658C1081.41 273.404 1081.19 273.095 1081.05 272.751C1080.9 272.407 1080.83 272.036 1080.83 271.662V269.665C1080.87 268.778 1080.63 267.901 1080.15 267.154C1079.63 266.562 1079.06 266.027 1078.43 265.557C1077.69 265.055 1076.86 264.688 1075.98 264.473V264.473Z" fill="#fff"/>
	<path d="M1090.94 245.235V283.631H1102.35L1115.92 263.263H1116.78V283.631H1128.19V245.235H1116.78L1102.97 265.66H1102.17V245.235H1090.94Z" fill="#fff"/>
	<path d="M1155 239.001C1156.55 238.991 1158.08 238.681 1159.51 238.088C1160.82 237.561 1162.01 236.764 1162.99 235.749C1164.02 234.721 1164.83 233.5 1165.39 232.155C1165.94 230.757 1166.21 229.265 1166.19 227.762H1159C1159.02 228.295 1158.94 228.828 1158.76 229.328C1158.57 229.828 1158.28 230.285 1157.91 230.672C1157.52 231.035 1157.07 231.317 1156.57 231.503C1156.07 231.689 1155.54 231.775 1155 231.756C1153.93 231.783 1152.89 231.394 1152.09 230.672C1151.36 229.883 1150.95 228.842 1150.95 227.762H1143.76C1143.67 229.333 1143.91 230.906 1144.45 232.383C1144.94 233.732 1145.72 234.959 1146.73 235.977C1147.77 236.977 1148.99 237.771 1150.33 238.317C1151.82 238.869 1153.41 239.102 1155 239.001V239.001ZM1136.23 244.707V283.617H1147.64L1161.57 263.249H1162.36V283.617H1173.77V245.22H1162.36L1148.27 265.645H1147.47V245.22L1136.23 244.707Z" fill="#fff"/>
	<path d="M710.844 311.928V350.382H722.254V321.855H736.061V350.382H747.472V311.928H710.844Z" fill="#fff"/>
	<path d="M774.923 351.989C777.744 351.986 780.537 351.423 783.139 350.334C785.644 349.239 787.927 347.692 789.871 345.77C791.801 343.897 793.351 341.669 794.435 339.209C795.564 336.687 796.147 333.956 796.147 331.193C796.147 328.43 795.564 325.699 794.435 323.177C793.352 320.682 791.803 318.417 789.871 316.502C787.921 314.615 785.639 313.107 783.139 312.052C780.547 310.924 777.75 310.342 774.923 310.342C772.096 310.342 769.3 310.924 766.708 312.052C764.191 313.106 761.889 314.615 759.918 316.502C758.023 318.447 756.478 320.705 755.354 323.177C754.263 325.709 753.7 328.436 753.7 331.193C753.7 333.95 754.263 336.677 755.354 339.209C756.478 341.647 758.023 343.869 759.918 345.77C761.888 347.688 764.188 349.234 766.708 350.334C769.308 351.429 772.102 351.992 774.923 351.989V351.989ZM774.923 342.005C773.616 341.986 772.329 341.674 771.158 341.092C769.908 340.6 768.793 339.818 767.906 338.81C767.014 337.775 766.301 336.598 765.795 335.329C765.192 334.024 764.881 332.602 764.882 331.164C764.898 329.71 765.209 328.274 765.795 326.943C766.34 325.694 767.05 324.523 767.906 323.462C768.855 322.525 769.954 321.754 771.158 321.18C772.337 320.633 773.624 320.36 774.923 320.381C776.222 320.366 777.508 320.639 778.689 321.18C779.878 321.751 780.959 322.523 781.884 323.462C782.794 324.505 783.544 325.678 784.109 326.943C784.659 328.281 784.93 329.718 784.908 331.164C784.946 332.594 784.674 334.015 784.109 335.329C783.585 336.615 782.831 337.795 781.884 338.81C780.987 339.781 779.899 340.558 778.689 341.092C777.516 341.669 776.23 341.98 774.923 342.005V342.005Z" fill="#fff"/>
	<path d="M821.355 351.97C823.934 352.002 826.499 351.597 828.943 350.772C831.006 350.026 832.934 348.946 834.648 347.577C836.24 346.305 837.593 344.759 838.642 343.012C839.66 341.338 840.392 339.507 840.81 337.592L829.399 335.938C828.822 337.563 827.816 339.001 826.489 340.103C824.891 341.423 822.855 342.095 820.784 341.985C819.597 341.985 818.426 341.711 817.361 341.187C816.232 340.628 815.223 339.853 814.394 338.905C813.458 337.967 812.771 336.81 812.397 335.538C811.787 334.157 811.495 332.655 811.541 331.145C811.5 329.636 811.793 328.136 812.397 326.752C812.797 325.476 813.48 324.306 814.394 323.329C815.244 322.433 816.249 321.698 817.361 321.161C818.416 320.609 819.594 320.334 820.784 320.362C822.517 320.265 824.23 320.769 825.634 321.789C826.784 322.695 827.719 323.845 828.372 325.155L839.783 323.557C839.326 321.852 838.594 320.234 837.615 318.765C836.522 317.152 835.195 315.709 833.678 314.486C830.032 311.696 825.546 310.227 820.955 310.321C818.274 310.311 815.624 310.896 813.196 312.033C810.766 313.091 808.559 314.601 806.692 316.483C804.832 318.444 803.309 320.7 802.185 323.158C801.094 325.69 800.531 328.417 800.531 331.174C800.531 333.931 801.094 336.658 802.185 339.19C803.311 341.613 804.834 343.831 806.692 345.751C808.553 347.668 810.76 349.217 813.196 350.315C815.759 351.465 818.546 352.03 821.355 351.97V351.97Z" fill="#fff"/>
	<path d="M842.579 311.928V321.969H854.617V350.496H866.028V321.969H878.066V311.928H842.579Z" fill="#fff"/>
	<path d="M910.525 327.176V335.164C909.9 336.421 909.114 337.591 908.186 338.644C907.378 339.522 906.457 340.289 905.447 340.926C904.327 341.653 903.016 342.03 901.682 342.01C900.442 342.033 899.212 341.784 898.079 341.282C896.945 340.779 895.936 340.034 895.12 339.1C893.212 336.916 892.248 334.064 892.439 331.17C892.281 328.263 893.24 325.405 895.12 323.182C895.958 322.284 896.975 321.571 898.105 321.089C899.235 320.608 900.453 320.368 901.682 320.387C903.011 320.346 904.322 320.704 905.447 321.414C906.447 322.107 907.366 322.911 908.186 323.81C909.088 324.842 909.872 325.971 910.525 327.176V327.176ZM881.257 331.17C881.205 334.022 881.729 336.855 882.797 339.5C883.743 341.912 885.115 344.134 886.848 346.061C888.469 347.857 890.402 349.345 892.553 350.454C894.589 351.476 896.837 352.004 899.114 351.994C900.749 352.046 902.377 351.774 903.907 351.196C905.103 350.698 906.218 350.025 907.216 349.199C908.146 348.419 908.92 347.47 909.498 346.403H910.525V350.397H921.935V311.943H910.525V315.994H909.669C909.078 314.919 908.306 313.954 907.387 313.141C906.369 312.375 905.257 311.742 904.078 311.258C902.504 310.617 900.814 310.306 899.114 310.346C896.801 310.346 894.518 310.872 892.439 311.886C890.279 312.955 888.342 314.427 886.734 316.222C885 318.169 883.629 320.411 882.683 322.84C881.576 325.477 881.013 328.31 881.028 331.17H881.257Z" fill="#fff"/>
	<path d="M941.51 326.359L951.894 339.195L962.335 326.359H963.134V350.378H974.544V311.924H962.563L951.894 324.59L941.51 311.753H929.472V350.207H940.883V326.359H941.51Z" fill="#fff"/>
	<path d="M1009.97 327.173V335.161C1009.38 336.427 1008.61 337.6 1007.69 338.641C1006.88 339.519 1005.96 340.287 1004.95 340.923C1003.83 341.65 1002.52 342.027 1001.18 342.007C999.942 342.03 998.713 341.781 997.579 341.279C996.446 340.776 995.436 340.032 994.621 339.098C993.683 338.013 992.969 336.755 992.519 335.394C992.068 334.033 991.891 332.597 991.997 331.167C991.823 328.268 992.761 325.411 994.621 323.18C995.458 322.281 996.475 321.568 997.605 321.086C998.735 320.605 999.954 320.366 1001.18 320.384C1002.51 320.344 1003.82 320.701 1004.95 321.411C1005.95 322.104 1006.87 322.908 1007.69 323.807C1008.59 324.827 1009.36 325.958 1009.97 327.173ZM980.757 331.167C980.734 334.017 981.257 336.844 982.298 339.497C983.244 341.909 984.616 344.131 986.348 346.058C987.958 347.867 989.894 349.357 992.054 350.451C994.124 351.491 996.413 352.019 998.729 351.992C1000.36 352.043 1001.99 351.772 1003.52 351.193C1004.72 350.695 1005.83 350.022 1006.83 349.196C1007.78 348.417 1008.57 347.469 1009.17 346.4H1009.91V350.394H1021.32V311.94H1009.91V315.991H1009.23C1008.61 314.915 1007.82 313.95 1006.89 313.138C1005.87 312.372 1004.76 311.739 1003.58 311.256C1002.06 310.637 1000.43 310.326 998.786 310.343C996.473 310.343 994.19 310.87 992.111 311.883C989.941 312.937 988.002 314.411 986.405 316.219C984.672 318.167 983.3 320.408 982.355 322.837C981.294 325.486 980.752 328.314 980.757 331.167V331.167Z" fill="#fff"/>
	<path d="M1026.01 311.928V321.969H1038.05V350.496H1049.46V321.969H1061.44V311.928H1026.01Z" fill="#fff"/>
	<path d="M313.534 227.59H191.225V349.899H313.534V227.59Z" fill="#F62E46"/>
	<path d="M399.992 141.144L313.535 227.601L399.992 314.11L486.501 227.601L399.992 141.144Z" fill="#F62E46"/>
	<path d="M609.073 227.59H486.506V349.899H609.073V227.59Z" fill="#F62E46"/>
	</svg>